<?xml version="1.0" encoding="UTF-8" standalone="no"?>
<!-- Created with Inkscape (http://www.inkscape.org/) -->

<svg
   xmlns:dc="http://purl.org/dc/elements/1.1/"
   xmlns:cc="http://creativecommons.org/ns#"
   xmlns:rdf="http://www.w3.org/1999/02/22-rdf-syntax-ns#"
   xmlns:svg="http://www.w3.org/2000/svg"
   xmlns="http://www.w3.org/2000/svg"
   xmlns:sodipodi="http://sodipodi.sourceforge.net/DTD/sodipodi-0.dtd"
   xmlns:inkscape="http://www.inkscape.org/namespaces/inkscape"
   width="744.09448819"
   height="1052.3622047"
   id="svg2"
   version="1.1"
   inkscape:version="0.48.3.1 r9886"
   sodipodi:docname="urlevaluatoricon.svg">
  <defs
     id="defs4">
    <clipPath
       id="clipPath3143"
       clipPathUnits="userSpaceOnUse">
      <path
         id="path3145"
         d="m 0,595.28 841.89,0 L 841.89,0 0,0 0,595.28 z" />
    </clipPath>
  </defs>
  <sodipodi:namedview
     id="base"
     pagecolor="#ffffff"
     bordercolor="#666666"
     borderopacity="1.0"
     inkscape:pageopacity="0.0"
     inkscape:pageshadow="2"
     inkscape:zoom="0.49497475"
     inkscape:cx="584.9839"
     inkscape:cy="711.85221"
     inkscape:document-units="px"
     inkscape:current-layer="layer1"
     showgrid="false"
     inkscape:window-width="1350"
     inkscape:window-height="927"
     inkscape:window-x="2109"
     inkscape:window-y="109"
     inkscape:window-maximized="0" />
  <metadata
     id="metadata7">
    <rdf:RDF>
      <cc:Work
         rdf:about="">
        <dc:format>image/svg+xml</dc:format>
        <dc:type
           rdf:resource="http://purl.org/dc/dcmitype/StillImage" />
        <dc:title></dc:title>
      </cc:Work>
    </rdf:RDF>
  </metadata>
  <g
     inkscape:label="Layer 1"
     inkscape:groupmode="layer"
     id="layer1">
    <rect
       style="fill:#000000;stroke:#000000;stroke-opacity:1;fill-opacity:1"
       id="rect3127"
       width="800"
       height="800"
       x="-35.355339"
       y="-126.44502"
       ry="76.771591"
       inkscape:export-filename="/home/nicolas/repos/urlevaluator/res/drawable-hdpi/ic_launcher.png"
       inkscape:export-xdpi="8.0898876"
       inkscape:export-ydpi="8.0898876" />
    <g
       id="g3159"
       transform="matrix(1.25,0,0,-1.25,490.60798,140.31405)" />
    <g
       id="g3790"
       transform="matrix(1.6868211,0,0,1.6868211,-415.44281,-385.16162)">
      <g
         transform="matrix(1.2321045,-0.21075717,-0.21075717,-1.2321045,559.61905,826.02519)"
         id="g3163">
        <path
           id="path3165"
           style="fill:#ffffff;fill-opacity:1;fill-rule:nonzero;stroke:none"
           d="m 0,0 c -17.14,0.002 -31.089,13.944 -31.093,31.095 l -0.008,42.023 -8.167,-0.007 c -8.728,-0.002 -16.918,3.389 -23.074,9.549 -6.164,6.154 -9.56,14.35 -9.548,23.084 l -0.03,147.53 -0.002,8.367 8.361,-0.002 203.275,0.032 8.364,0.006 0.001,-8.361 0.021,-147.549 C 148.103,87.774 133.465,73.132 115.475,73.136 l -8.223,-0.01 0.012,-42.008 C 107.262,13.978 93.318,0.021 76.185,0.022 67.88,0.003 60.083,3.232 54.198,9.119 48.307,14.99 45.065,22.797 45.069,31.098 l -0.001,42.029 -13.973,0.001 0,-42.022 C 31.092,13.96 17.147,-0.003 0,0"
           inkscape:connector-curvature="0" />
      </g>
      <g
         transform="matrix(1.2321045,-0.21075717,-0.21075717,-1.2321045,459.06822,709.12493)"
         id="g3167">
        <path
           id="path3169"
           style="fill:#ffffff;fill-opacity:1;fill-rule:nonzero;stroke:none"
           d="m 0,0 c -0.012,-13.436 10.833,-24.282 24.257,-24.277 l 16.52,-10e-4 0.019,-50.379 c -0.003,-12.541 10.187,-22.738 22.72,-22.739 12.564,0 22.742,10.206 22.731,22.756 l 0.002,50.368 30.696,0.005 -0.002,-50.377 c 0.011,-12.543 10.214,-22.749 22.744,-22.728 12.562,-0.008 22.747,10.198 22.745,22.749 l -0.014,50.363 16.58,0.005 c 13.378,-0.005 24.261,10.867 24.26,24.274 L 203.232,147.578 -0.037,147.542 0,0 z"
           inkscape:connector-curvature="0" />
      </g>
      <g
         transform="matrix(1.2321045,-0.21075717,-0.21075717,-1.2321045,747.736,656.1728)"
         id="g3171">
        <path
           id="path3173"
           style="fill:#ffffff;fill-opacity:1;fill-rule:nonzero;stroke:none"
           d="m 0,0 c -17.148,-0.002 -31.098,13.933 -31.093,31.087 l -0.023,95.217 c 0.004,17.152 13.931,31.102 31.072,31.103 17.162,0.002 31.118,-13.945 31.115,-31.093 L 31.08,31.103 C 31.084,13.962 17.147,-0.003 0,0"
           inkscape:connector-curvature="0" />
      </g>
      <g
         transform="matrix(1.2321045,-0.21075717,-0.21075717,-1.2321045,716.29091,472.53711)"
         id="g3175">
        <path
           id="path3177"
           style="fill:#ffffff;fill-opacity:1;fill-rule:nonzero;stroke:none"
           d="m 0,0 c -12.555,0.01 -22.731,-10.186 -22.729,-22.743 l 0.009,-95.213 c 0.006,-12.572 10.177,-22.743 22.743,-22.735 12.555,0.002 22.719,10.165 22.73,22.743 l -0.025,95.211 C 22.726,-10.177 12.557,0.003 0,0"
           inkscape:connector-curvature="0" />
      </g>
      <g
         transform="matrix(-0.70911289,0.70509496,-0.70509496,-0.70911289,722.28903,506.71814)"
         inkscape:transform-center-y="-82.23677"
         inkscape:transform-center-x="36.197498"
         id="g3336">
        <g
           id="g3147"
           transform="matrix(1.25,0,0,-1.25,265.8961,377.55217)">
          <path
             inkscape:connector-curvature="0"
             d="m 0,0 c -17.157,-0.01 -31.095,13.946 -31.097,31.101 l -0.008,95.217 c -0.006,17.137 13.929,31.09 31.063,31.093 8.332,0.007 16.13,-3.225 22.011,-9.096 5.881,-5.874 9.114,-13.686 9.12,-21.988 L 31.081,31.102 C 31.102,22.811 27.878,14.998 22.002,9.133 16.138,3.242 8.317,0.003 0,0"
             style="fill:#ffffff;fill-opacity:1;fill-rule:nonzero;stroke:none"
             id="path3149" />
        </g>
        <g
           id="g3151"
           transform="matrix(1.25,0,0,-1.25,265.8656,191.23442)">
          <path
             inkscape:connector-curvature="0"
             d="m 0,0 c -12.556,0.006 -22.732,-10.19 -22.735,-22.735 l 0.017,-95.214 c 0.003,-12.588 10.197,-22.747 22.738,-22.759 12.566,0.015 22.744,10.178 22.731,22.758 l 0.002,95.227 C 22.748,-10.181 12.558,0.009 0,0"
             style="fill:#ffffff;fill-opacity:1;fill-rule:nonzero;stroke:none"
             id="path3153" />
        </g>
        <path
           style="fill:#a4c439;fill-opacity:1;fill-rule:nonzero;stroke:none"
           d="m 265.86573,191.23405 c -15.695,-0.007 -28.415,12.73875 -28.41875,28.42 l 0.0213,119.01625 c 0.004,15.735 12.72875,28.43125 28.425,28.42875 15.705,0.001 28.4275,-12.7025 28.41125,-28.4275 l 0.002,-119.03375 c -0.006,-15.6775 -12.745,-28.41375 -28.44125,-28.40375"
           id="path3254"
           inkscape:connector-curvature="0" />
      </g>
      <g
         transform="matrix(0.99813392,-0.06106295,0.06106295,0.99813392,108.59288,309.84283)"
         inkscape:transform-center-y="-27.056652"
         inkscape:transform-center-x="86.20942"
         id="g3343">
        <g
           id="g3155"
           transform="matrix(1.25,0,0,-1.25,570.74223,197.12743)">
          <path
             inkscape:connector-curvature="0"
             d="m 0,0 -8.359,0.003 -204.813,-0.027 -8.362,-0.003 -0.003,8.361 c -0.019,34.321 18.68,66.242 49.304,85.102 l -11.906,21.733 c -1.458,2.548 -1.822,5.772 -0.975,8.723 0.861,2.949 2.894,5.482 5.621,6.933 1.576,0.894 3.501,1.391 5.449,1.388 4.216,-0.001 8.083,-2.289 10.117,-5.989 l 12.462,-22.701 c 12.897,4.732 26.511,7.144 40.576,7.139 14.268,0.006 27.951,-2.409 40.902,-7.159 l 12.442,22.74 c 2.003,3.691 5.895,5.99 10.106,5.986 1.896,0.002 3.786,-0.461 5.455,-1.359 2.799,-1.536 4.751,-3.984 5.61,-6.954 0.855,-2.952 0.512,-6.07 -0.988,-8.774 l -11.9,-21.723 C -18.684,74.521 -0.008,42.623 -0.011,8.362 L 0,0 z"
             style="fill:#ffffff;fill-opacity:1;fill-rule:nonzero;stroke:none"
             id="path3157" />
        </g>
        <path
           inkscape:connector-curvature="0"
           id="path3248"
           style="fill:#a4c439;fill-opacity:1;fill-rule:nonzero;stroke:none"
           d="m 490.60823,140.31405 c -5.91875,0.006 -10.73625,-4.7925 -10.735,-10.73125 0.02,-5.88125 4.81,-10.735 10.74,-10.755 5.88625,0.0162 10.715,4.86875 10.71,10.76125 0.0137,5.92625 -4.79875,10.72625 -10.715,10.725 m -116.5725,0.0212 c -5.895,-0.0137 -10.6975,-4.80625 -10.69875,-10.72625 0.002,-5.8975 4.79375,-10.74625 10.70875,-10.745 5.93625,-0.005 10.7375,4.8475 10.745,10.7425 0.002,5.915 -4.81,10.725 -10.755,10.72875 m 121.0225,-55.9775 19.8375,-36.22625 c 1.0575,-1.8925 0.36375,-4.30375 -1.55625,-5.3725 -1.93375,-1.025 -4.325,-0.32875 -5.3475,1.5775 l -20.03625,36.6038 c -16.86375,-7.50125 -35.7275,-11.7125 -55.69125,-11.69 -19.91125,-0.01625 -38.77,4.17625 -55.56,11.63625 L 356.64698,44.3778 c -1.045,-1.92625 -3.44375,-2.6225 -5.3375,-1.57375 -1.93125,1.03875 -2.63625,3.45375 -1.56625,5.3425 l 19.84625,36.19875 c -38.99375,20.11125 -65.33875,58.405 -65.31875,102.37 l 256.01375,-0.0263 c 0.007,-43.95875 -26.29,-82.1725 -65.22625,-102.33125 m -4.45025,55.9563 c -5.9175,0.006 -10.74625,-4.785 -10.735,-10.73125 0,-5.88375 4.81,-10.735 10.74,-10.755 5.88625,0.0162 10.715,4.86875 10.71,10.76125 0.004,5.925 -4.79875,10.72625 -10.715,10.725 m -116.57125,0.0212 c -5.89625,-0.0137 -10.69875,-4.80625 -10.7,-10.72625 0.002,-5.8975 4.8025,-10.745 10.70875,-10.745 5.93625,-0.005 10.7375,4.8475 10.745,10.7425 0.002,5.91625 -4.80875,10.725 -10.75375,10.72875 m 121.0225,-55.9775 19.83625,-36.22625 c 1.0575,-1.8925 0.36625,-4.3175 -1.5475,-5.36625 -1.94,-1.045 -4.33375,-0.33125 -5.35625,1.57125 l -20.04375,36.5888 c -16.8575,-7.48125 -35.73125,-11.695 -55.68375,-11.675 -19.91125,-0.01625 -38.75125,4.175 -55.56,11.63625 L 356.64673,44.3778 c -1.035,-1.925 -3.4525,-2.62875 -5.33875,-1.56875 -1.92875,1.02875 -2.63375,3.44875 -1.565,5.3375 l 19.8475,36.195 c -38.995,20.115 -65.33875,58.40875 -65.31875,102.37375 l 256.0125,-0.0263 c 0.008,-43.95875 -26.29,-82.1725 -65.225,-102.33125" />
      </g>
      <path
         inkscape:connector-curvature="0"
         id="path3246"
         d="m 427.92776,527.34571 31.14134,181.79581 c 2.81518,16.53963 18.47409,27.59903 35.00341,24.77542 l 20.35465,-3.47263 10.64119,62.06818 c 2.63917,15.45249 17.35125,25.86857 32.78582,23.22842 15.48016,-2.64795 25.86954,-17.3679 23.22844,-32.83021 l -10.63041,-62.05734 37.8195,-6.4763 10.63328,62.06699 c 2.63811,15.44634 17.36075,25.87963 32.79357,23.21442 15.48061,-2.63789 25.87738,-17.3591 23.2297,-32.82282 l -10.63161,-62.04953 20.42184,-3.50979 c 16.48904,-2.81443 27.61526,-18.47559 24.79018,-35.01353 L 678.37921,484.46242 427.92787,527.3464 z"
         style="fill:#a4c439;fill-opacity:1;fill-rule:nonzero;stroke:none" />
      <path
         inkscape:connector-curvature="0"
         id="path3181"
         d="m 749.09522,495.75273 c -2.64845,-15.47119 -17.33418,-25.86515 -32.80385,-23.21519 -15.47118,2.63374 -25.86164,17.33992 -23.21125,32.81205 l 20.08696,117.31146 c 2.64823,15.48772 17.32326,25.86068 32.80427,23.21765 15.46873,-2.64802 25.86011,-17.31175 23.21248,-32.81226 l -20.08866,-117.3137 z"
         style="fill:#a4c439;fill-opacity:1;fill-rule:nonzero;stroke:none" />
    </g>
    <flowRoot
       xml:space="preserve"
       id="flowRoot3014"
       style="font-size:40px;font-style:normal;font-variant:normal;font-weight:normal;font-stretch:normal;line-height:125%;letter-spacing:0px;word-spacing:0px;fill:#000000;fill-opacity:1;stroke:#ffffff;font-family:Roboto;-inkscape-font-specification:Roboto;stroke-opacity:1;stroke-width:1.09412348;stroke-miterlimit:4;stroke-dasharray:none"
       transform="matrix(7.2508969,-0.94167517,0.94167517,7.2508969,1065.3043,-717.03362)"><flowRegion
         id="flowRegion3016"><rect
           id="rect3018"
           width="490.93414"
           height="155.56349"
           x="-161.6244"
           y="72.514221"
           style="stroke:#ffffff;stroke-opacity:1;stroke-width:1.09412348;stroke-miterlimit:4;stroke-dasharray:none" /></flowRegion><flowPara
         id="flowPara3020"
         style="font-weight:bold;fill:#00005f;fill-opacity:1;stroke:#ffffff;stroke-opacity:1;stroke-width:1.09412348;stroke-miterlimit:4;stroke-dasharray:none">http://</flowPara></flowRoot>  </g>
</svg>
